<svg xmlns="http://www.w3.org/2000/svg" viewBox="0 0 512 512" role="img" aria-labelledby="title desc">
  <title id="title">Polish Bonds Calculator</title>
  <desc id="desc">A treasury bond certificate with a rising yield line in Polish national colours.</desc>
  <defs>
    <linearGradient id="ground" x1="74" y1="52" x2="438" y2="466" gradientUnits="userSpaceOnUse">
      <stop stop-color="#172B4D" />
      <stop offset="1" stop-color="#071426" />
    </linearGradient>
    <linearGradient id="paper" x1="127" y1="108" x2="394" y2="407" gradientUnits="userSpaceOnUse">
      <stop stop-color="#FFFFFF" />
      <stop offset="1" stop-color="#DCE6F3" />
    </linearGradient>
  </defs>
  <rect width="512" height="512" rx="112" fill="url(#ground)" />
  <path d="M0 384C105 323 172 372 260 331C346 291 407 243 512 279V512H0Z" fill="#C81E3A" />
  <path d="M0 415C106 356 180 402 271 360C355 321 420 277 512 308V512H0Z" fill="#9E1630" opacity=".72" />
  <g transform="rotate(-8 256 256)">
    <rect x="104" y="99" width="304" height="318" rx="44" fill="#06101F" opacity=".28" transform="translate(11 15)" />
    <rect x="104" y="99" width="304" height="318" rx="44" fill="url(#paper)" />
    <rect x="137" y="139" width="104" height="20" rx="10" fill="#C81E3A" />
    <rect x="137" y="184" width="238" height="14" rx="7" fill="#9CB0C8" />
    <rect x="137" y="211" width="178" height="14" rx="7" fill="#C3D0E0" />
    <rect x="137" y="269" width="238" height="2" fill="#B7C7D9" />
    <rect x="137" y="295" width="44" height="44" rx="12" fill="#173357" />
    <rect x="195" y="295" width="44" height="44" rx="12" fill="#173357" />
    <rect x="253" y="295" width="44" height="44" rx="12" fill="#173357" />
    <path d="M139 370C190 372 215 351 249 334C285 316 323 293 373 244" fill="none" stroke="#E5A83A" stroke-linecap="round" stroke-width="18" />
    <path d="m343 246 31-2-3 31" fill="none" stroke="#E5A83A" stroke-linecap="round" stroke-linejoin="round" stroke-width="18" />
  </g>
  <circle cx="403" cy="113" r="35" fill="#E5A83A" />
  <path d="M403 94v38M384 113h38" stroke="#071426" stroke-linecap="round" stroke-width="10" />
</svg>
